<svg xmlns="http://www.w3.org/2000/svg" viewBox="0 0 72 72" fill="none">
  <defs>
    <linearGradient id="gfav" x1="0" y1="0" x2="1" y2="1">
      <stop offset="0%" stop-color="#c8102e" />
      <stop offset="100%" stop-color="#e8435e" />
    </linearGradient>
  </defs>
  <path d="M10 52 C18 52 32 46 40 34 C48 22 54 10 56 4 C58 -2 62 -2 64 4 C66 10 64 18 58 26 C52 34 44 38 40 36 C36 34 36 28 40 22 C44 16 50 14 54 16" stroke="url(#gfav)" stroke-width="5" stroke-linecap="round" fill="none" />
  <path d="M44 42 C48 42 56 38 62 30 C68 22 70 14 70 8" stroke="url(#gfav)" stroke-width="3" stroke-linecap="round" fill="none" />
  <circle cx="68" cy="5" r="2.5" fill="#c8102e" />
</svg>